<svg viewBox="0 0 128 128" xmlns="http://www.w3.org/2000/svg">
  <rect width="128" height="128" rx="16" fill="#3d2817"/>
  <ellipse cx="64" cy="36" rx="20" ry="6" fill="#5b3a23" opacity="0.7"/>
  <path d="M30 44 L30 88 Q30 104 64 104 Q98 104 98 88 L98 44 Z" fill="#f0e0c8"/>
  <path d="M98 56 Q116 56 116 72 Q116 88 98 88 L98 80 Q108 80 108 72 Q108 64 98 64 Z" fill="#f0e0c8"/>
  <ellipse cx="64" cy="46" rx="32" ry="6" fill="#6b4226"/>
  <path d="M52 22 Q56 14 52 6 M64 22 Q68 14 64 6 M76 22 Q80 14 76 6" stroke="#d8d8d8" stroke-width="2.5" fill="none" opacity="0.85"/>
</svg>
